HIERARCHY
ROOT hip
{
  OFFSET 0.0 0.0 0.0
  CHANNELS 6 Xposition Yposition Zposition Zrotation Yrotation Xrotation
  JOINT abdomen
  {
    OFFSET 0.0 20.6881 -0.73152
    CHANNELS 3 Zrotation Xrotation Yrotation
    JOINT chest
    {
      OFFSET 0.0 11.7043 -0.48768
      CHANNELS 3 Zrotation Xrotation Yrotation
      JOINT neck
      {
        OFFSET 0.0 22.1894 -2.19456
        CHANNELS 3 Zrotation Xrotation Yrotation
        JOINT head
        {
          OFFSET -0.24384 7.07133 1.2192
          CHANNELS 3 Zrotation Xrotation Yrotation
          JOINT leftEye
          {
            OFFSET 4.14528 8.04674 8.04672
            CHANNELS 3 Zrotation Xrotation Yrotation
            End Site
            {
              OFFSET 1.0 0.0 0.0
            }
          }
          JOINT rightEye
          {
            OFFSET -3.6576 8.04674 8.04672
            CHANNELS 3 Zrotation Xrotation Yrotation
            End Site
            {
              OFFSET 1.0 0.0 0.0
            }
          }
        }
      }
      JOINT rCollar
      {
        OFFSET -2.68224 19.2634 -4.8768
        CHANNELS 3 Zrotation Xrotation Yrotation
        JOINT rShldr
        {
          OFFSET -8.77824 -1.95073 1.46304
          CHANNELS 3 Zrotation Xrotation Yrotation
          JOINT rForeArm
          {
            OFFSET -28.1742 -1.7115 0.48768
            CHANNELS 3 Zrotation Xrotation Yrotation
            JOINT rHand
            {
              OFFSET -22.5879 0.773209 7.07136
              CHANNELS 3 Zrotation Xrotation Yrotation
              JOINT rThumb1
              {
                OFFSET -1.2192 -0.487915 3.41376
                CHANNELS 3 Zrotation Xrotation Yrotation
                JOINT rThumb2
                {
                  OFFSET -3.37035 -0.52449 3.41376
                  CHANNELS 3 Zrotation Xrotation Yrotation
                  End Site
                  {
                    OFFSET -1.78271 -1.18214 1.43049
                  }
                }
              }
              JOINT rIndex1
              {
                OFFSET -7.75947 0.938293 5.60832
                CHANNELS 3 Zrotation Xrotation Yrotation
                JOINT rIndex2
                {
                  OFFSET -2.54057 -0.884171 1.56538
                  CHANNELS 3 Zrotation Xrotation Yrotation
                  End Site
                  {
                    OFFSET -1.62519 -0.234802 1.16502
                  }
                }
              }
              JOINT rMid1
              {
                OFFSET -8.24714 1.18213 3.41376
                CHANNELS 3 Zrotation Xrotation Yrotation
                JOINT rMid2
                {
                  OFFSET -3.10165 -0.590103 1.0647
                  CHANNELS 3 Zrotation Xrotation Yrotation
                  End Site
                  {
                    OFFSET -2.48547 -0.328903 0.83742
                  }
                }
              }
              JOINT rRing1
              {
                OFFSET -8.82822 0.546677 1.51678
                CHANNELS 3 Zrotation Xrotation Yrotation
                JOINT rRing2
                {
                  OFFSET -2.60934 -0.819778 -0.0198488
                  CHANNELS 3 Zrotation Xrotation Yrotation
                  End Site
                  {
                    OFFSET -2.33842 -0.294052 0.168128
                  }
                }
              }
              JOINT rPinky1
              {
                OFFSET -8.27202 -0.0477905 -0.4584
                CHANNELS 3 Zrotation Xrotation Yrotation
                JOINT rPinky2
                {
                  OFFSET -1.82734 -0.647385 -0.700984
                  CHANNELS 3 Zrotation Xrotation Yrotation
                  End Site
                  {
                    OFFSET -1.69225 -0.51767 -0.607171
                  }
                }
              }
            }
          }
        }
      }
      JOINT lCollar
      {
        OFFSET 2.68224 19.2634 -4.8768
        CHANNELS 3 Zrotation Xrotation Yrotation
        JOINT lShldr
        {
          OFFSET 8.77824 -1.95073 1.46304
          CHANNELS 3 Zrotation Xrotation Yrotation
          JOINT lForeArm
          {
            OFFSET 28.1742 -1.7115 0.48768
            CHANNELS 3 Zrotation Xrotation Yrotation
            JOINT lHand
            {
              OFFSET 22.5879 0.773209 7.07136
              CHANNELS 3 Zrotation Xrotation Yrotation
              JOINT lThumb1
              {
                OFFSET 1.2192 -0.487915 3.41376
                CHANNELS 3 Zrotation Xrotation Yrotation
                JOINT lThumb2
                {
                  OFFSET 3.37035 -0.52449 3.41376
                  CHANNELS 3 Zrotation Xrotation Yrotation
                  End Site
                  {
                    OFFSET 1.78271 -1.18214 1.43049
                  }
                }
              }
              JOINT lIndex1
              {
                OFFSET 7.75947 0.938293 5.60832
                CHANNELS 3 Zrotation Xrotation Yrotation
                JOINT lIndex2
                {
                  OFFSET 2.54057 -0.884171 1.56538
                  CHANNELS 3 Zrotation Xrotation Yrotation
                  End Site
                  {
                    OFFSET 1.62519 -0.234802 1.16502
                  }
                }
              }
              JOINT lMid1
              {
                OFFSET 8.24714 1.18213 3.41376
                CHANNELS 3 Zrotation Xrotation Yrotation
                JOINT lMid2
                {
                  OFFSET 3.10165 -0.590103 1.0647
                  CHANNELS 3 Zrotation Xrotation Yrotation
                  End Site
                  {
                    OFFSET 2.48547 -0.328903 0.83742
                  }
                }
              }
              JOINT lRing1
              {
                OFFSET 8.82822 0.546677 1.51678
                CHANNELS 3 Zrotation Xrotation Yrotation
                JOINT lRing2
                {
                  OFFSET 2.60934 -0.819778 -0.0198488
                  CHANNELS 3 Zrotation Xrotation Yrotation
                  End Site
                  {
                    OFFSET 2.33842 -0.294052 0.168128
                  }
                }
              }
              JOINT lPinky1
              {
                OFFSET 8.27202 -0.0477905 -0.4584
                CHANNELS 3 Zrotation Xrotation Yrotation
                JOINT lPinky2
                {
                  OFFSET 1.82734 -0.647385 -0.700984
                  CHANNELS 3 Zrotation Xrotation Yrotation
                  End Site
                  {
                    OFFSET 1.69225 -0.51767 -0.607171
                  }
                }
              }
            }
          }
        }
      }
    }
  }
  JOINT rButtock
  {
    OFFSET -8.77824 4.35084 1.2192
    CHANNELS 3 Zrotation Xrotation Yrotation
    JOINT rThigh
    {
      OFFSET 0.0 -1.70687 -2.19456
      CHANNELS 3 Zrotation Xrotation Yrotation
      JOINT rShin
      {
        OFFSET 0.0 -36.8199 0.73152
        CHANNELS 3 Zrotation Xrotation Yrotation
        JOINT rFoot
        {
          OFFSET 0.73152 -45.1104 -5.12064
          CHANNELS 3 Zrotation Xrotation Yrotation
          End Site
          {
            OFFSET -1.1221 -3.69964 12.103
          }
        }
      }
    }
  }
  JOINT lButtock
  {
    OFFSET 8.77824 4.35084 1.2192
    CHANNELS 3 Zrotation Xrotation Yrotation
    JOINT lThigh
    {
      OFFSET 0.0 -1.70687 -2.19456
      CHANNELS 3 Zrotation Xrotation Yrotation
      JOINT lShin
      {
        OFFSET 0.0 -36.8199 0.73152
        CHANNELS 3 Zrotation Xrotation Yrotation
        JOINT lFoot
        {
          OFFSET -0.73152 -45.1104 -5.12064
          CHANNELS 3 Zrotation Xrotation Yrotation
          End Site
          {
            OFFSET 1.1221 -3.69964 12.103
          }
        }
      }
    }
  }
}
MOTION
Frames: 5
Frame Time: 0.00833333
-0.88612 84.668 81.66560999999999 -1.109 3.9976 1.619 1.56016 7.07919 -0.133103 4.09163 -4.47409 0.285886 3.82397 0.894675 -0.958717 -6.67497 -6.22746 -3.26245 -0.0 0.0 0.0 -0.0 0.0 0.0 5.98943e-14 7.75309e-14 -2.97866e-14 74.2181 26.1059 6.40603 -13.8362 -6.82204 25.2268 -0.302686 15.4667 2.22866 -6.46577e-10 -1.53058e-09 2.72148e-09 -1.08515e-09 -2.63963e-09 4.71055e-09 -6.46559e-10 -1.53057e-09 2.72147e-09 7.73091 5.47488 0.417314 -6.46576e-10 -1.53058e-09 2.72149e-09 2.90554 0.965183 0.102902 -6.46571e-10 -1.53058e-09 2.72148e-09 10.2786 0.731801 0.0259123 -6.46579e-10 -1.53058e-09 2.72149e-09 2.22167 -0.733487 -0.20892 -5.666e-14 -1.19757e-13 4.46209e-14 -15.2452 -24.1473 14.9785 19.3557 -12.2224 -37.1379 0.923119 -26.1998 3.9654 -7.89255e-11 -1.00617e-09 6.43394e-10 -1.54785e-10 -1.77285e-09 1.11145e-09 -7.89267e-11 -1.00617e-09 6.43407e-10 -7.73091 5.47488 -0.417314 -7.89224e-11 -1.00617e-09 6.43401e-10 -2.90554 0.965183 -0.102902 -7.89249e-11 -1.00617e-09 6.43398e-10 -10.2786 0.731801 -0.0259123 -7.89209e-11 -1.00617e-09 6.43391e-10 -2.22167 -0.733487 0.20892 -2.03217e-16 0.0 -3.88251e-19 3.12986 -18.9118 -0.51706 -0.194506 32.1235 0.264515 -4.15167 -4.47173 -22.2341 2.03217e-16 0.0 3.88251e-19 7.01064 -21.4898 4.29078 1.66866 66.5182 -1.91057 -0.00848299 12.344 5.22689
-0.9264800000000002 84.6912 83.34478999999999 -1.4284 4.0211 1.5133 2.01203 6.92367 0.0306214 3.897 -4.45646 0.324274 3.84791 0.967953 -0.987022 -6.77465 -6.19047 -3.32273 -0.0 0.0 0.0 -0.0 0.0 0.0 -1.05721e-15 2.36436e-13 -2.11954e-14 74.3177 26.0502 6.10999 -13.9475 -6.91205 25.4486 -0.223792 13.3971 1.91833 -7.50368e-10 -1.38648e-09 2.44341e-09 -1.26867e-09 -2.3922e-09 4.23031e-09 -7.50352e-10 -1.38648e-09 2.4434e-09 7.73091 5.47488 0.417314 -7.50367e-10 -1.38649e-09 2.44341e-09 2.90554 0.965183 0.102902 -7.50362e-10 -1.38649e-09 2.44341e-09 10.2786 0.731801 0.0259123 -7.5037e-10 -1.38649e-09 2.44342e-09 2.22167 -0.733487 -0.20892 -1.19068e-13 -3.05388e-13 9.68353e-14 -15.2283 -24.2911 14.9612 19.3308 -12.1927 -37.0791 0.795168 -24.5184 3.67396 -1.8512e-10 -1.17047e-09 5.99078e-10 -3.36291e-10 -2.0526e-09 1.03355e-09 -1.85125e-10 -1.17046e-09 5.99092e-10 -7.73091 5.47488 -0.417314 -1.85118e-10 -1.17047e-09 5.99084e-10 -2.90554 0.965183 -0.102902 -1.8512e-10 -1.17046e-09 5.99081e-10 -10.2786 0.731801 -0.0259123 -1.85117e-10 -1.17046e-09 5.99074e-10 -2.22167 -0.733487 0.20892 -2.03217e-16 0.0 -3.88251e-19 3.70819 -17.3873 -0.276733 -0.180284 31.6633 0.301579 -4.39993 -4.93508 -22.69 2.03217e-16 0.0 3.88251e-19 7.66906 -23.3259 5.00442 1.71743 66.9871 -1.97093 0.137909 10.2099 6.57358
-0.96025 84.677 85.01899999999999 -1.7626 4.0768 1.4039 2.44791 6.77871 0.152168 3.69939 -4.43553 0.348624 3.87017 1.02956 -1.01405 -6.91882 -6.20379 -3.38638 -0.0 0.0 0.0 -0.0 0.0 0.0 -3.97601e-14 3.29194e-13 -2.85256e-14 74.4284 25.8995 5.78726 -14.0257 -6.97516 25.6057 -0.156141 11.28 1.60588 -8.45359e-10 -1.04303e-09 1.78679e-09 -1.44175e-09 -1.8012e-09 3.09531e-09 -8.45348e-10 -1.04302e-09 1.78678e-09 7.73091 5.47488 0.417314 -8.45359e-10 -1.04303e-09 1.78679e-09 2.90554 0.965183 0.102902 -8.45352e-10 -1.04303e-09 1.78679e-09 10.2786 0.731801 0.0259123 -8.45363e-10 -1.04303e-09 1.78681e-09 2.22167 -0.733487 -0.20892 -1.49418e-13 -4.11099e-13 1.2588e-13 -15.2289 -24.4086 14.9366 19.3038 -12.1606 -37.0155 0.670316 -22.6867 3.36596 -3.0445e-10 -1.25962e-09 4.81338e-10 -5.38349e-10 -2.1998e-09 8.28959e-10 -3.0446e-10 -1.25962e-09 4.81353e-10 -7.73091 5.47488 -0.417314 -3.04448e-10 -1.25962e-09 4.81343e-10 -2.90554 0.965183 -0.102902 -3.04453e-10 -1.25962e-09 4.81341e-10 -10.2786 0.731801 -0.0259123 -3.04449e-10 -1.25962e-09 4.81334e-10 -2.22167 -0.733487 0.20892 -2.03217e-16 0.0 -3.88251e-19 4.18817 -15.888 -0.180973 -0.166719 31.2471 0.343099 -4.66158 -5.4528 -23.0487 2.03217e-16 0.0 3.88251e-19 8.24085 -25.1201 5.65887 1.73436 67.179 -2.00409 0.369148 8.21592 7.96839
-0.9930100000000002 84.6309 86.69576599999999 -2.1252 4.1371 1.2723 2.90166 6.66762 0.267163 3.50031 -4.42592 0.370871 3.88419 1.06796 -1.04173 -7.06395 -6.22324 -3.45111 -0.0 0.0 0.0 -0.0 0.0 0.0 -4.77897e-14 3.28733e-13 -6.71057e-14 74.5542 25.6275 5.43089 -14.0666 -7.00777 25.6892 -0.102499 9.17544 1.30014 -8.68448e-10 -6.44233e-10 1.01806e-09 -1.49149e-09 -1.11455e-09 1.76604e-09 -8.68442e-10 -6.44233e-10 1.01805e-09 7.73091 5.47488 0.417314 -8.68449e-10 -6.44237e-10 1.01806e-09 2.90554 0.965183 0.102902 -8.68441e-10 -6.44238e-10 1.01806e-09 10.2786 0.731801 0.0259123 -8.68453e-10 -6.44238e-10 1.01808e-09 2.22167 -0.733487 -0.20892 -1.29388e-13 -4.00198e-13 1.20609e-13 -15.2451 -24.4927 14.8982 19.2734 -12.1245 -36.9438 0.561683 -20.8649 3.06915 -3.71088e-10 -1.24932e-09 3.66924e-10 -6.49118e-10 -2.1751e-09 6.30881e-10 -3.71103e-10 -1.24933e-09 3.66939e-10 -7.73091 5.47488 -0.417314 -3.71087e-10 -1.24932e-09 3.66927e-10 -2.90554 0.965183 -0.102902 -3.71094e-10 -1.24932e-09 3.66926e-10 -10.2786 0.731801 -0.0259123 -3.71089e-10 -1.24932e-09 3.66918e-10 -2.22167 -0.733487 0.20892 -2.03217e-16 0.0 -3.88251e-19 4.65286 -14.3657 -0.159409 -0.153348 30.7884 0.384374 -4.91815 -5.95884 -23.3726 2.03217e-16 0.0 3.88251e-19 8.79201 -26.8429 6.26843 1.71984 67.0981 -2.00751 0.666277 6.40574 9.30579
-1.0333700000000001 84.5574 88.36649999999999 -2.5409 4.1948 1.1255 3.40725 6.61366 0.411214 3.30125 -4.4423 0.402951 3.88335 1.07161 -1.07199 -7.16629 -6.20466 -3.51457 -0.0 0.0 0.0 -0.0 0.0 0.0 -3.97935e-14 2.74623e-13 -1.24641e-13 74.6913 25.2432 5.04498 -14.072 -7.01203 25.7001 -0.0630002 7.14362 1.00926 -7.56533e-10 -3.34133e-10 4.03625e-10 -1.30498e-09 -5.80175e-10 7.03019e-10 -7.5653e-10 -3.34134e-10 4.03616e-10 7.73091 5.47488 0.417314 -7.56534e-10 -3.34137e-10 4.03622e-10 2.90554 0.965183 0.102902 -7.56525e-10 -3.34137e-10 4.03627e-10 10.2786 0.731801 0.0259123 -7.56539e-10 -3.34138e-10 4.03644e-10 2.22167 -0.733487 -0.20892 -7.80583e-14 -3.14677e-13 9.29256e-14 -15.2834 -24.5473 14.8438 19.2402 -12.0852 -36.8657 0.475275 -19.2136 2.80742 -3.19208e-10 -1.11527e-09 3.32584e-10 -5.56753e-10 -1.93917e-09 5.72526e-10 -3.19224e-10 -1.11527e-09 3.326e-10 -7.73091 5.47488 -0.417314 -3.19206e-10 -1.11527e-09 3.32587e-10 -2.90554 0.965183 -0.102902 -3.19215e-10 -1.11527e-09 3.32587e-10 -10.2786 0.731801 -0.0259123 -3.19209e-10 -1.11526e-09 3.32578e-10 -2.22167 -0.733487 0.20892 -2.03217e-16 0.0 -3.88251e-19 5.17761 -12.7721 -0.144114 -0.139601 30.201 0.420672 -5.15178 -6.38673 -23.7232 2.03217e-16 0.0 3.88251e-19 9.38932 -28.4642 6.84682 1.67638 66.749 -1.98073 0.993583 4.82125 10.4801
